<?xml version="1.0" encoding="utf-8"?>
<!-- Generator: Adobe Illustrator 22.0.1, SVG Export Plug-In . SVG Version: 6.00 Build 0)  -->
<svg version="1.1" id="Capa_1" xmlns="http://www.w3.org/2000/svg" xmlns:xlink="http://www.w3.org/1999/xlink" x="0px" y="0px"
	 viewBox="0 0 13 25" style="enable-background:new 0 0 13 25;" xml:space="preserve">
<style type="text/css">
	.st0{fill:#FFFFFF;stroke:#FFFFFF;stroke-width:2;stroke-miterlimit:10;}
</style>
<title>arrow-right copy 2</title>
<desc>Created with Sketch.</desc>
<title>arrow-left</title>
<desc>Created with Sketch.</desc>
<g id="Page-1">
	<g id="VISTA-PROYECTO-MENU-ABIERTO" transform="translate(-222.000000, -495.000000)">
		<g id="controls" transform="translate(214.000000, 480.000000)">
			
				<g id="arrow-right-copy-3" transform="translate(14.500000, 27.500000) rotate(-180.000000) translate(-14.500000, -27.500000) translate(7.000000, 15.000000)">
				<g id="arrow-left" transform="translate(7.500000, 12.500000) rotate(-180.000000) translate(-7.500000, -12.500000) ">
					
						<g id="_x30_01-next-copy" transform="translate(7.043478, 12.500000) rotate(-180.000000) translate(-7.043478, -12.500000) translate(0.043478, 0.000000)">
						<path id="Shape" class="st0" d="M1.6,12.9l9,9c0.2,0.2,0.6,0.2,0.8,0c0.2-0.2,0.2-0.6,0-0.8l-8.6-8.6l8.6-8.6
							c0.2-0.2,0.2-0.6,0-0.8c-0.1-0.1-0.2-0.2-0.4-0.2c-0.1,0-0.3,0.1-0.4,0.2l-9,9C1.4,12.3,1.4,12.7,1.6,12.9z"/>
					</g>
				</g>
			</g>
		</g>
	</g>
</g>
</svg>
